<svg id="Capa_1" enable-background="new 0 0 511.906 511.906" height="512" viewBox="0 0 511.906 511.906" width="512" xmlns="http://www.w3.org/2000/svg"><g><path d="m273.153 118.453h-34.148c-19.425 0-37.92 7.73-52.079 21.769-14.27 14.147-22.128 32.77-22.128 52.412l-.251 75.266c-.014 4.143 3.333 7.512 7.475 7.525h.026c4.13 0 7.485-3.342 7.499-7.475l.138-41.407h100.951c9.734.143 9.729-15.144 0-15h-17.323v-34.557c0-4.143-3.357-7.5-7.5-7.5s-7.5 3.357-7.5 7.5v34.557h-68.578l.063-18.884c0-32.093 27.113-59.206 59.207-59.206h9.308v16.674c0 4.143 3.357 7.5 7.5 7.5s7.5-3.357 7.5-7.5v-16.674h9.841c32.646 0 59.206 26.56 59.206 59.206v18.884h-24.863c-9.734-.143-9.729 15.144 0 15h24.863v92.079c0 32.439-26.313 58.831-58.658 58.831h-34.5c-32.755 0-59.403-26.392-59.403-58.831v-23.07c0-4.143-3.357-7.5-7.5-7.5s-7.5 3.357-7.5 7.5v23.07c0 40.711 33.377 73.831 74.403 73.831h34.5c40.615 0 73.658-33.12 73.658-73.831v-125.963c-.001-40.917-33.29-74.206-74.207-74.206z"/><path d="m298.507 411.256-42.418 42.419-42.417-42.419c-9.412-9.41-24.727-9.41-34.141.001-9.41 9.411-9.41 24.726 0 34.14l59.488 59.487c8.986 9.364 25.154 9.363 34.14 0l23.192-23.192c2.929-2.93 2.929-7.678 0-10.607-2.93-2.928-7.678-2.928-10.607 0l-23.192 23.192c-3.4 3.545-9.525 3.546-12.925 0l-59.488-59.486c-3.563-3.564-3.563-9.363-.001-12.927 3.564-3.564 9.364-3.564 12.927 0l47.721 47.722c2.794 2.905 7.814 2.904 10.607 0l47.722-47.722c3.562-3.564 9.362-3.563 12.926-.001 3.563 3.564 3.563 9.363.001 12.927l-15.705 15.704c-2.93 2.929-2.93 7.678-.001 10.606s7.678 2.93 10.606.001l15.706-15.705c9.41-9.413 9.41-24.728-.001-34.14-9.414-9.412-24.729-9.409-34.14 0z"/><path d="m195.729 107.953c6.446 0 12.506-2.52 17.061-7.094l42.327-42.505 42.326 42.505c8.977 9.396 25.146 9.395 34.123 0 9.382-9.423 9.382-24.753 0-34.176l-59.387-59.635c-8.974-9.397-25.149-9.396-34.123-.001l-23.153 23.25c-2.923 2.935-2.913 7.684.022 10.606 2.933 2.922 7.682 2.912 10.606-.022l23.154-23.251c3.389-3.545 9.475-3.545 12.863.001l59.389 59.637c3.57 3.586 3.57 9.422 0 13.008-3.39 3.547-9.475 3.547-12.865 0l-47.641-47.842c-2.795-2.92-7.834-2.92-10.629 0l-47.642 47.842c-3.39 3.547-9.475 3.546-12.865 0-3.57-3.586-3.57-9.422 0-13.008l15.679-15.744c2.923-2.935 2.913-7.684-.022-10.606-2.935-2.923-7.684-2.914-10.606.022l-15.679 15.744c-9.382 9.423-9.382 24.753 0 34.177 4.557 4.573 10.616 7.093 17.062 7.092z"/></g></svg>